<mxfile host="app.diagrams.net" modified="2024-06-29T03:05:01.365Z" agent="Mozilla/5.0 (Windows NT 10.0; Win64; x64) AppleWebKit/537.36 (KHTML, like Gecko) Chrome/126.0.0.0 Safari/537.36 Edg/126.0.0.0" version="24.6.4" etag="UdE4EXp5jc_r-pIToqPX" type="github">
  <diagram name="Page-1" id="EpkPFB6VosoJyVkrDtgG">
    <mxGraphModel>
      <root>
        <mxCell id="0" />
        <mxCell id="1" parent="0" />
      </root>
    </mxGraphModel>
  </diagram>
</mxfile>
